<svg width="408" height="408" viewBox="0 0 408 408" fill="none" xmlns="http://www.w3.org/2000/svg">
<!-- 1st rect is the artboard -->
<rect width="408" height="408" fill="white"/>
<!-- outer circle -->
<circle cx="192" cy="211" r="137" fill="#CB2026"/>
<!-- inner rectangle -->
<path d="M110.97 161.254C112.423 159.54 114.667 159 116.914 159H266.297C270.049 159 273.617 160.513 275.225 163.902C278.28 170.341 282.498 184.255 282.498 212C282.498 240.435 278.068 253.487 274.999 259.118C273.489 261.89 270.431 263 267.274 263H119.535C115.662 263 111.951 261.436 110.113 258.028C106.411 251.164 101 236.292 101 208C101 177.432 107.317 165.562 110.97 161.254Z" fill="white"/>
<!-- triangle -->
<path d="M229.476 210.631C230.149 211.015 230.149 211.985 229.476 212.369L173.995 243.99C173.329 244.37 172.5 243.888 172.5 243.121L172.5 179.879C172.5 179.112 173.329 178.63 173.995 179.01L229.476 210.631Z" fill="#CB2026"/>
</svg>
