<svg width="319" height="61" viewBox="0 0 319 61" fill="none" xmlns="http://www.w3.org/2000/svg">
<rect width="319" height="61" rx="10" fill="#6D54D2"/>
<path d="M34.1375 14.6H37.5575V31C37.5575 33.1733 37.1242 35.0467 36.2575 36.62C35.3908 38.18 34.1975 39.38 32.6775 40.22C31.1708 41.06 29.4442 41.48 27.4975 41.48C25.5508 41.48 23.8108 41.06 22.2775 40.22C20.7575 39.38 19.5642 38.18 18.6975 36.62C17.8308 35.0467 17.3975 33.1733 17.3975 31V14.6H20.7975V30.82C20.7975 32.3533 21.0908 33.68 21.6775 34.8C22.2642 35.92 23.0642 36.7867 24.0775 37.4C25.0908 38 26.2308 38.3 27.4975 38.3C28.7642 38.3 29.8975 38 30.8975 37.4C31.8975 36.7867 32.6842 35.92 33.2575 34.8C33.8442 33.68 34.1375 32.3533 34.1375 30.82V14.6ZM51.5613 24.1C52.6413 24.1 53.6879 24.3267 54.7013 24.78C55.7279 25.2333 56.5679 25.9533 57.2213 26.94C57.8879 27.9133 58.2213 29.1867 58.2213 30.76V41H54.7013V31.44C54.7013 29.8133 54.3213 28.6333 53.5613 27.9C52.8013 27.1533 51.8213 26.78 50.6213 26.78C49.8346 26.78 49.0746 27.0067 48.3413 27.46C47.6213 27.9 47.0279 28.5133 46.5613 29.3C46.0946 30.0733 45.8613 30.9533 45.8613 31.94V41H42.3813V24.58H45.8613V27.5C45.9813 27.0467 46.3079 26.5533 46.8413 26.02C47.3746 25.4867 48.0546 25.0333 48.8813 24.66C49.7079 24.2867 50.6013 24.1 51.5613 24.1ZM63.1519 41V24.58H66.6319V41H63.1519ZM64.9319 18.96C64.3052 18.96 63.7652 18.74 63.3119 18.3C62.8719 17.8467 62.6519 17.3067 62.6519 16.68C62.6519 16.0533 62.8719 15.5133 63.3119 15.06C63.7652 14.6067 64.3052 14.38 64.9319 14.38C65.3452 14.38 65.7252 14.4867 66.0719 14.7C66.4319 14.9133 66.7185 15.1933 66.9319 15.54C67.1452 15.8733 67.2519 16.2533 67.2519 16.68C67.2519 17.3067 67.0252 17.8467 66.5719 18.3C66.1185 18.74 65.5719 18.96 64.9319 18.96ZM79.5516 41.48C77.8582 41.48 76.3516 41.1 75.0316 40.34C73.7249 39.58 72.6982 38.5533 71.9516 37.26C71.2049 35.9533 70.8316 34.48 70.8316 32.84C70.8316 31.2 71.2049 29.72 71.9516 28.4C72.6982 27.08 73.7249 26.0333 75.0316 25.26C76.3516 24.4867 77.8582 24.1 79.5516 24.1C81.2316 24.1 82.7182 24.4867 84.0116 25.26C85.3182 26.0333 86.3382 27.08 87.0716 28.4C87.8049 29.72 88.1716 31.2 88.1716 32.84C88.1716 34.48 87.8049 35.9533 87.0716 37.26C86.3382 38.5533 85.3182 39.58 84.0116 40.34C82.7182 41.1 81.2316 41.48 79.5516 41.48ZM79.5516 38.5C80.6182 38.5 81.5449 38.2533 82.3316 37.76C83.1316 37.2667 83.7516 36.5933 84.1916 35.74C84.6316 34.8733 84.8516 33.9 84.8516 32.82C84.8516 31.74 84.6316 30.7667 84.1916 29.9C83.7516 29.0333 83.1316 28.3467 82.3316 27.84C81.5449 27.3333 80.6182 27.08 79.5516 27.08C78.4716 27.08 77.5316 27.3333 76.7316 27.84C75.9316 28.3467 75.3049 29.0333 74.8516 29.9C74.4116 30.7667 74.1916 31.74 74.1916 32.82C74.1916 33.9 74.4116 34.8733 74.8516 35.74C75.3049 36.5933 75.9316 37.2667 76.7316 37.76C77.5316 38.2533 78.4716 38.5 79.5516 38.5ZM101.21 24.1C102.29 24.1 103.336 24.3267 104.35 24.78C105.376 25.2333 106.216 25.9533 106.87 26.94C107.536 27.9133 107.87 29.1867 107.87 30.76V41H104.35V31.44C104.35 29.8133 103.97 28.6333 103.21 27.9C102.45 27.1533 101.47 26.78 100.27 26.78C99.483 26.78 98.723 27.0067 97.9897 27.46C97.2697 27.9 96.6764 28.5133 96.2097 29.3C95.743 30.0733 95.5097 30.9533 95.5097 31.94V41H92.0297V24.58H95.5097V27.5C95.6297 27.0467 95.9564 26.5533 96.4897 26.02C97.023 25.4867 97.703 25.0333 98.5297 24.66C99.3564 24.2867 100.25 24.1 101.21 24.1ZM124.721 27.78C124.721 29.74 125.128 31.5067 125.941 33.08C126.768 34.6533 127.901 35.9067 129.341 36.84C130.781 37.76 132.435 38.22 134.301 38.22C136.181 38.22 137.835 37.76 139.261 36.84C140.701 35.9067 141.828 34.6533 142.641 33.08C143.455 31.5067 143.861 29.74 143.861 27.78C143.861 25.82 143.455 24.06 142.641 22.5C141.828 20.9267 140.701 19.68 139.261 18.76C137.835 17.84 136.181 17.38 134.301 17.38C132.435 17.38 130.781 17.84 129.341 18.76C127.901 19.68 126.768 20.9267 125.941 22.5C125.128 24.06 124.721 25.82 124.721 27.78ZM121.181 27.78C121.181 25.86 121.508 24.0733 122.161 22.42C122.828 20.7533 123.755 19.3 124.941 18.06C126.128 16.82 127.515 15.8533 129.101 15.16C130.701 14.4667 132.435 14.12 134.301 14.12C136.181 14.12 137.915 14.4667 139.501 15.16C141.101 15.8533 142.488 16.82 143.661 18.06C144.848 19.3 145.768 20.7533 146.421 22.42C147.075 24.0733 147.401 25.86 147.401 27.78C147.401 29.7133 147.075 31.5133 146.421 33.18C145.781 34.8333 144.868 36.2867 143.681 37.54C142.508 38.78 141.128 39.7467 139.541 40.44C137.955 41.1333 136.208 41.48 134.301 41.48C132.395 41.48 130.635 41.1333 129.021 40.44C127.421 39.7467 126.035 38.78 124.861 37.54C123.688 36.2867 122.781 34.8333 122.141 33.18C121.501 31.5133 121.181 29.7133 121.181 27.78ZM154.808 49.32H151.348V24.58H154.868V27.66C154.988 27.2467 155.321 26.76 155.868 26.2C156.414 25.64 157.148 25.1533 158.068 24.74C159.001 24.3133 160.068 24.1 161.268 24.1C162.788 24.1 164.134 24.4667 165.308 25.2C166.494 25.92 167.421 26.9333 168.088 28.24C168.768 29.5333 169.108 31.0533 169.108 32.8C169.108 34.5467 168.761 36.0733 168.068 37.38C167.374 38.6733 166.428 39.68 165.228 40.4C164.041 41.12 162.681 41.48 161.148 41.48C159.908 41.48 158.821 41.2467 157.888 40.78C156.968 40.3133 156.241 39.7867 155.708 39.2C155.188 38.6133 154.888 38.1467 154.808 37.8V49.32ZM165.668 32.8C165.668 31.6133 165.421 30.5867 164.928 29.72C164.448 28.8533 163.808 28.18 163.008 27.7C162.208 27.22 161.341 26.98 160.408 26.98C159.381 26.98 158.448 27.2267 157.608 27.72C156.768 28.2 156.101 28.88 155.608 29.76C155.114 30.6267 154.868 31.64 154.868 32.8C154.868 33.96 155.114 34.98 155.608 35.86C156.101 36.7267 156.768 37.4 157.608 37.88C158.448 38.36 159.381 38.6 160.408 38.6C161.341 38.6 162.208 38.3667 163.008 37.9C163.808 37.42 164.448 36.7467 164.928 35.88C165.421 35.0133 165.668 33.9867 165.668 32.8ZM174.913 33.5C174.926 34.4867 175.139 35.3867 175.553 36.2C175.966 37.0133 176.579 37.66 177.393 38.14C178.219 38.62 179.233 38.86 180.433 38.86C181.446 38.86 182.306 38.7133 183.013 38.42C183.733 38.1133 184.319 37.7533 184.773 37.34C185.226 36.9133 185.553 36.5333 185.753 36.2L187.453 38.3C187.013 38.94 186.473 39.5 185.833 39.98C185.206 40.46 184.439 40.8267 183.533 41.08C182.626 41.3467 181.519 41.48 180.213 41.48C178.453 41.48 176.926 41.1067 175.633 40.36C174.353 39.6 173.366 38.5533 172.673 37.22C171.979 35.8733 171.633 34.3333 171.633 32.6C171.633 31 171.959 29.56 172.613 28.28C173.266 26.9867 174.213 25.9667 175.453 25.22C176.706 24.4733 178.213 24.1 179.973 24.1C181.586 24.1 182.986 24.44 184.173 25.12C185.373 25.7867 186.299 26.7333 186.953 27.96C187.619 29.1867 187.953 30.6533 187.953 32.36C187.953 32.4667 187.946 32.66 187.933 32.94C187.919 33.2067 187.906 33.3933 187.893 33.5H174.913ZM184.633 30.88C184.619 30.3333 184.459 29.7333 184.153 29.08C183.859 28.4267 183.379 27.8667 182.713 27.4C182.046 26.9333 181.146 26.7 180.013 26.7C178.839 26.7 177.893 26.9267 177.173 27.38C176.466 27.8333 175.946 28.3867 175.613 29.04C175.279 29.68 175.086 30.2933 175.033 30.88H184.633ZM195.215 41H191.755V24.58H195.215V27.42H195.115C195.182 27.0733 195.429 26.64 195.855 26.12C196.282 25.6 196.869 25.1333 197.615 24.72C198.362 24.3067 199.255 24.1 200.295 24.1C201.055 24.1 201.722 24.2067 202.295 24.42C202.882 24.62 203.295 24.82 203.535 25.02L202.115 27.9C201.929 27.7133 201.602 27.5267 201.135 27.34C200.669 27.14 200.089 27.04 199.395 27.04C198.515 27.04 197.762 27.3133 197.135 27.86C196.509 28.4067 196.029 29.0667 195.695 29.84C195.375 30.6 195.215 31.3067 195.215 31.96V41ZM218.628 41V37.8C218.521 38.1333 218.208 38.5933 217.688 39.18C217.181 39.7667 216.481 40.3 215.588 40.78C214.708 41.2467 213.668 41.48 212.468 41.48C210.948 41.48 209.568 41.12 208.328 40.4C207.101 39.68 206.121 38.6733 205.388 37.38C204.668 36.0733 204.308 34.5467 204.308 32.8C204.308 31.0533 204.668 29.5333 205.388 28.24C206.121 26.9333 207.101 25.92 208.328 25.2C209.568 24.4667 210.948 24.1 212.468 24.1C213.655 24.1 214.681 24.3133 215.548 24.74C216.428 25.1667 217.128 25.66 217.648 26.22C218.181 26.78 218.495 27.26 218.588 27.66V24.58H222.028V41H218.628ZM207.748 32.8C207.748 33.9867 208.008 35.0133 208.528 35.88C209.048 36.7467 209.721 37.42 210.548 37.9C211.388 38.3667 212.281 38.6 213.228 38.6C214.241 38.6 215.148 38.36 215.948 37.88C216.748 37.4 217.381 36.7267 217.848 35.86C218.315 34.98 218.548 33.96 218.548 32.8C218.548 31.64 218.315 30.6267 217.848 29.76C217.381 28.88 216.748 28.2 215.948 27.72C215.148 27.2267 214.241 26.98 213.228 26.98C212.281 26.98 211.388 27.22 210.548 27.7C209.721 28.18 209.048 28.8533 208.528 29.72C208.008 30.5867 207.748 31.6133 207.748 32.8ZM225.278 24.58H228.498V17.84H231.958V24.58H236.178V27.56H231.958V35.68C231.958 36.64 232.125 37.3467 232.458 37.8C232.805 38.2533 233.265 38.48 233.838 38.48C234.345 38.48 234.738 38.3867 235.018 38.2C235.298 38.0133 235.465 37.8867 235.518 37.82L236.898 40.38C236.818 40.4467 236.605 40.5733 236.258 40.76C235.911 40.9467 235.465 41.1133 234.918 41.26C234.371 41.4067 233.731 41.48 232.998 41.48C231.718 41.48 230.645 41.0933 229.778 40.32C228.925 39.5333 228.498 38.2933 228.498 36.6V27.56H225.278V24.58ZM240.3 41V24.58H243.78V41H240.3ZM242.08 18.96C241.454 18.96 240.914 18.74 240.46 18.3C240.02 17.8467 239.8 17.3067 239.8 16.68C239.8 16.0533 240.02 15.5133 240.46 15.06C240.914 14.6067 241.454 14.38 242.08 14.38C242.494 14.38 242.874 14.4867 243.22 14.7C243.58 14.9133 243.867 15.1933 244.08 15.54C244.294 15.8733 244.4 16.2533 244.4 16.68C244.4 17.3067 244.174 17.8467 243.72 18.3C243.267 18.74 242.72 18.96 242.08 18.96ZM256.7 41.48C255.007 41.48 253.5 41.1 252.18 40.34C250.873 39.58 249.847 38.5533 249.1 37.26C248.353 35.9533 247.98 34.48 247.98 32.84C247.98 31.2 248.353 29.72 249.1 28.4C249.847 27.08 250.873 26.0333 252.18 25.26C253.5 24.4867 255.007 24.1 256.7 24.1C258.38 24.1 259.867 24.4867 261.16 25.26C262.467 26.0333 263.487 27.08 264.22 28.4C264.953 29.72 265.32 31.2 265.32 32.84C265.32 34.48 264.953 35.9533 264.22 37.26C263.487 38.5533 262.467 39.58 261.16 40.34C259.867 41.1 258.38 41.48 256.7 41.48ZM256.7 38.5C257.767 38.5 258.693 38.2533 259.48 37.76C260.28 37.2667 260.9 36.5933 261.34 35.74C261.78 34.8733 262 33.9 262 32.82C262 31.74 261.78 30.7667 261.34 29.9C260.9 29.0333 260.28 28.3467 259.48 27.84C258.693 27.3333 257.767 27.08 256.7 27.08C255.62 27.08 254.68 27.3333 253.88 27.84C253.08 28.3467 252.453 29.0333 252 29.9C251.56 30.7667 251.34 31.74 251.34 32.82C251.34 33.9 251.56 34.8733 252 35.74C252.453 36.5933 253.08 37.2667 253.88 37.76C254.68 38.2533 255.62 38.5 256.7 38.5ZM278.358 24.1C279.438 24.1 280.485 24.3267 281.498 24.78C282.525 25.2333 283.365 25.9533 284.018 26.94C284.685 27.9133 285.018 29.1867 285.018 30.76V41H281.498V31.44C281.498 29.8133 281.118 28.6333 280.358 27.9C279.598 27.1533 278.618 26.78 277.418 26.78C276.631 26.78 275.871 27.0067 275.138 27.46C274.418 27.9 273.825 28.5133 273.358 29.3C272.891 30.0733 272.658 30.9533 272.658 31.94V41H269.178V24.58H272.658V27.5C272.778 27.0467 273.105 26.5533 273.638 26.02C274.171 25.4867 274.851 25.0333 275.678 24.66C276.505 24.2867 277.398 24.1 278.358 24.1ZM295.729 24.1C296.582 24.1 297.375 24.1867 298.109 24.36C298.855 24.5333 299.495 24.74 300.029 24.98C300.575 25.22 300.962 25.4333 301.189 25.62L299.809 27.82C299.542 27.58 299.062 27.3133 298.369 27.02C297.675 26.7133 296.902 26.56 296.049 26.56C295.115 26.56 294.322 26.7467 293.669 27.12C293.015 27.48 292.689 28.0067 292.689 28.7C292.689 29.3933 293.022 29.9467 293.689 30.36C294.369 30.76 295.275 31.0933 296.409 31.36C297.315 31.5733 298.162 31.86 298.949 32.22C299.749 32.58 300.395 33.08 300.889 33.72C301.382 34.3467 301.629 35.1867 301.629 36.24C301.629 37.2 301.429 38.02 301.029 38.7C300.629 39.3667 300.089 39.9067 299.409 40.32C298.729 40.72 297.969 41.0133 297.129 41.2C296.289 41.3867 295.435 41.48 294.569 41.48C293.555 41.48 292.642 41.3733 291.829 41.16C291.015 40.96 290.329 40.72 289.769 40.44C289.222 40.1467 288.822 39.8933 288.569 39.68L289.949 37.2C290.295 37.5333 290.862 37.8867 291.649 38.26C292.449 38.6333 293.355 38.82 294.369 38.82C295.489 38.82 296.395 38.5867 297.089 38.12C297.782 37.64 298.129 37.02 298.129 36.26C298.129 35.6867 297.962 35.2267 297.629 34.88C297.295 34.5333 296.849 34.2533 296.289 34.04C295.729 33.8267 295.115 33.64 294.449 33.48C293.809 33.3333 293.182 33.14 292.569 32.9C291.969 32.66 291.415 32.3533 290.909 31.98C290.415 31.5933 290.022 31.1267 289.729 30.58C289.435 30.02 289.289 29.3667 289.289 28.62C289.289 27.6733 289.589 26.8667 290.189 26.2C290.789 25.52 291.575 25 292.549 24.64C293.522 24.28 294.582 24.1 295.729 24.1Z" fill="#FCFCFC"/>
</svg>
