<svg width="274" height="274" viewBox="0 0 274 274" fill="none" xmlns="http://www.w3.org/2000/svg">
<!-- Outer Circle -->
<circle cx="137" cy="137" r="137" fill="#CB2026"/>
<!-- Inner Rectangle -->
<path d="M55.9696 87.2538C57.4226 85.5399 59.6666 85 61.9136 85H211.297C215.049 85 218.617 86.5128 220.225 89.9023C223.28 96.3412 227.498 110.255 227.498 138C227.498 166.435 223.068 179.487 219.999 185.118C218.489 187.89 215.431 189 212.274 189H64.5347C60.6624 189 56.9514 187.436 55.1133 184.028C51.4114 177.164 46 162.292 46 134C46 103.432 52.3169 91.5623 55.9696 87.2538Z" fill="white"/>
<!-- Inner Triangle -->
<path d="M174.476 136.631C175.149 137.015 175.149 137.985 174.476 138.369L118.995 169.99C118.329 170.37 117.5 169.888 117.5 169.121L117.5 105.879C117.5 105.112 118.329 104.63 118.995 105.01L174.476 136.631Z" fill="#CB2026"/>
</svg>
