<svg width="274" height="274" viewBox="0 0 274 274" fill="none" xmlns="http://www.w3.org/2000/svg">
<!-- Outer Shape -->
<path fill-rule="evenodd" clip-rule="evenodd" d="M137 274C212.663 274 274 212.663 274 137C274 61.337 212.663 0 137 0C61.337 0 0 61.337 0 137C0 212.663 61.337 274 137 274ZM61.9136 85C59.6666 85 57.4226 85.5399 55.9696 87.2538C52.3169 91.5623 46 103.432 46 134C46 162.292 51.4114 177.164 55.1133 184.028C56.9514 187.436 60.6624 189 64.5347 189H212.274C215.431 189 218.489 187.89 219.999 185.118C223.068 179.487 227.498 166.435 227.498 138C227.498 110.255 223.28 96.3412 220.225 89.9023C218.617 86.5128 215.049 85 211.297 85H61.9136Z" fill="#CB2026"/>
<!-- Inner Triangle -->
<path d="M174.476 136.631C175.149 137.015 175.149 137.985 174.476 138.369L118.995 169.99C118.329 170.37 117.5 169.888 117.5 169.121L117.5 105.879C117.5 105.112 118.329 104.63 118.995 105.01L174.476 136.631Z" fill="#CB2026"/>
</svg>
